#!OML:ASF E:\emotionWalksFemale\Project 1\Capture day 1\Session 1\Female1.ASF
:FULLY-SPECIFIED
:DEGREES
142
root 8.55918 18.0839 35.025 -167.911 -8.95213 -182.303
lowerback 15.4367 1.11074 3.59834
upperback -1.76087 2.19997 0.671934
thorax -10.512 0.840242 -1.83529
lowerneck -6.45494 -5.38487 -9.31339
upperneck 2.15292 -6.60122 3.59832
head 2.30973 -3.31066 2.52696
rclavicle 1.39149e-014 -4.13472e-014
rhumerus -44.8808 17.1094 -90.1334
rradius 31.2884
rwrist 32.9896
rhand -5.1788 -47.8553
rfingers 7.12502
rthumb 20.6216 -76.7799
lclavicle 1.39149e-014 -4.13472e-014
lhumerus -49.6767 -10.766 88.0656
lradius 31.3077
lwrist -32.9824
lhand 22.5883 -32.8635
lfingers 7.12502
lthumb 46.9382 -10.1701
rfemur -19.6103 19.9154 15.8032
rtibia 6.99286
rfoot -32.5898 -38.8492
rtoes 63.6333
lfemur -31.0402 -24.3263 -12.1894
ltibia 15.4264
lfoot -5.18658 34.7993
ltoes 43.6198
143
root 8.55805 17.822 34.955 -167.835 -8.83069 -182.415
lowerback 15.5189 1.36251 3.65525
upperback -1.71864 2.54348 0.628894
thorax -10.4889 0.999063 -1.99773
lowerneck -6.67085 -5.60557 -9.20892
upperneck 1.96062 -6.88069 3.32939
head 2.28538 -3.45435 2.39788
rclavicle -1.49089e-014 -3.02153e-014
rhumerus -45.5275 17.5316 -90.2936
rradius 31.382
rwrist 33.0691
rhand -5.19103 -47.6882
rfingers 7.12502
rthumb 20.6099 -76.614
lclavicle -1.49089e-014 -3.02153e-014
lhumerus -50.2727 -10.8609 87.9289
lradius 31.5196
lwrist -32.8695
lhand 22.3144 -32.4542
lfingers 7.12502
lthumb 46.6847 -9.65028
rfemur -20.7121 20.3188 15.2379
rtibia 8.42627
rfoot -25.8302 -42.7965
rtoes 60.5835
lfemur -30.7505 -22.0966 -13.3602
ltibia 15.2232
lfoot 2.96327 33.5391
ltoes 31.8613
144
root 8.55649 17.5507 34.8838 -167.783 -8.73102 -182.477
lowerback 15.6075 1.60159 3.79129
upperback -1.63967 2.88634 0.632832
thorax -10.4261 1.15493 -2.15293
lowerneck -6.99896 -5.85705 -9.40234
upperneck 1.75229 -7.1739 3.18155
head 2.29681 -3.60554 2.36025
rclavicle 3.89618e-014 2.38542e-015
rhumerus -45.875 18.0251 -90.3272
rradius 31.1972
rwrist 32.9376
rhand -5.11334 -47.3199
rfingers 7.12502
rthumb 20.6845 -76.2376
lclavicle 3.89618e-014 2.38542e-015
lhumerus -50.7306 -10.659 87.6046
lradius 31.6497
lwrist -32.6466
lhand 22.7576 -32.3122
lfingers 7.12502
lthumb 47.0948 -9.68787
rfemur -22.1309 20.6763 14.7101
rtibia 10.6444
rfoot -15.6911 -46.1211
rtoes 55.8101
lfemur -30.6046 -20.1082 -14.2282
ltibia 15.0286
lfoot 10.2239 31.255
ltoes 19.0093
145
root 8.57288 17.267 34.7965 -167.606 -8.4472 -182.668
lowerback 15.3727 1.85842 3.31893
upperback -1.6043 3.12984 0.633078
thorax -10.26 1.30449 -1.93315
lowerneck -7.18526 -5.96402 -9.43836
upperneck 1.43237 -7.30191 3.03919
head 2.2258 -3.67154 2.30948
rclavicle -6.54002e-014 -1.59028e-014
rhumerus -46.1891 18.5687 -90.5115
rradius 30.8909
rwrist 32.8509
rhand -4.74553 -46.8485
rfingers 7.12502
rthumb 21.0379 -75.7274
lclavicle -6.54002e-014 -1.59028e-014
lhumerus -51.0543 -10.1415 86.928
lradius 31.4633
lwrist -32.1019
lhand 24.1437 -31.7932
lfingers 7.12502
lthumb 48.3738 -9.75672
rfemur -23.416 17.4308 15.6751
rtibia 13.7014
rfoot 4.58379 -43.4323
rtoes 44.2221
lfemur -30.4225 -16.9976 -15.7651
ltibia 15.5273
lfoot 16.0971 26.7906
ltoes 6.69385
146
root 8.56316 16.9899 34.6928 -167.598 -8.25954 -183.661
lowerback 14.9059 1.97404 2.43925
upperback -1.46063 3.07962 0.346651
thorax -9.86182 1.33615 -1.71227
lowerneck -7.03455 -5.94966 -9.35973
upperneck 0.917607 -7.31339 2.98841
head 2.01978 -3.67358 2.28601
rclavicle -1.25234e-014 -1.35174e-014
rhumerus -46.6086 19.0533 -90.7448
rradius 30.6388
rwrist 32.8314
rhand -3.6533 -46.4484
rfingers 7.12502
rthumb 22.0869 -75.2069
lclavicle -1.25234e-014 -1.35174e-014
lhumerus -51.5421 -9.24571 85.9266
lradius 31.2561
lwrist -32.1192
lhand 24.2367 -32.0868
lfingers 7.12502
lthumb 48.4594 -10.0913
rfemur -24.3942 13.1096 16.0691
rtibia 17.6595
rfoot 13.5673 -35.4284
rtoes 34.7296
lfemur -30.6639 -14.4791 -18.1933
ltibia 17.7973
lfoot 18.7264 21.8022
ltoes -3.35244
147
root 8.55765 16.6638 34.6227 -167.721 -8.45345 -183.853
lowerback 15.0822 1.95395 2.51879
upperback -1.45637 3.06351 0.251882
thorax -9.94984 1.31899 -1.86352
lowerneck -6.79078 -5.94127 -9.41643
upperneck 0.257394 -7.3375 3.15828
head 1.76919 -3.67613 2.36417
rclavicle 1.35174e-014 -3.18055e-015
rhumerus -46.9872 19.4075 -90.8815
rradius 30.4686
rwrist 32.7019
rhand -2.33641 -46.4183
rfingers 7.12502
rthumb 23.3507 -75.0219
lclavicle 1.35174e-014 -3.18055e-015
lhumerus -52.3587 -8.66108 85.0649
lradius 31.5904
lwrist -31.8937
lhand 23.6156 -32.8347
lfingers 7.12502
lthumb 47.8872 -10.5694
rfemur -25.4125 7.36933 18.0798
rtibia 22.8178
rfoot 11.2695 -23.5947
rtoes 13.897
lfemur -31.3717 -11.6312 -19.7996
ltibia 20.704
lfoot 19.0824 16.2232
ltoes -9.37487
148
root 8.52898 16.2728 34.6036 -167.532 -7.61141 -183.133
lowerback 15.423 2.24718 3.56583
upperback -1.63117 3.66237 0.204427
thorax -10.2458 1.53363 -2.6642
lowerneck -6.4752 -5.95301 -9.42205
upperneck -0.671985 -7.40786 3.27724
head 1.41708 -3.70286 2.41925
rclavicle -6.08281e-014 -1.82882e-014
rhumerus -47.0537 19.483 -90.7349
rradius 30.2824
rwrist 32.5182
rhand -1.33167 -46.3007
rfingers 7.12502
rthumb 24.3143 -74.7786
lclavicle -6.08281e-014 -1.82882e-014
lhumerus -53.1997 -8.27477 84.335
lradius 32.1896
lwrist -31.2051
lhand 23.5023 -32.9516
lfingers 7.12502
lthumb 47.7826 -10.638
rfemur -27.4342 2.70193 20.5853
rtibia 27.8844
rfoot 5.81286 -14.9744
rtoes -7.51631
lfemur -32.7974 -8.34078 -20.5415
ltibia 24.7033
lfoot 15.0891 8.54272
ltoes -17.0437
149
root 8.52767 15.9656 34.5681 -167.788 -7.66576 -182.992
lowerback 16.0537 2.25281 3.8703
upperback -1.65966 3.7545 0.214406
thorax -10.6182 1.54436 -2.88208
lowerneck -5.8594 -5.91467 -9.36818
upperneck -1.81961 -7.45127 3.29256
head 0.935285 -3.71865 2.44371
rclavicle -5.60573e-014 -2.8625e-014
rhumerus -46.8895 19.2497 -90.256
rradius 29.9144
rwrist 32.4349
rhand -0.552787 -45.8132
rfingers 7.12502
rthumb 25.0608 -74.189
lclavicle -5.60573e-014 -2.8625e-014
lhumerus -53.973 -7.40287 83.3626
lradius 32.3653
lwrist -31.3333
lhand 22.4542 -33.3079
lfingers 7.12502
lthumb 46.8141 -10.5602
rfemur -28.9831 -0.485516 22.1257
rtibia 32.8188
rfoot -1.21426 -12.9532
rtoes -7.51824
lfemur -33.732 -6.02838 -21.4886
ltibia 29.067
lfoot 5.80184 2.52035
ltoes -34.3091
150
root 8.53039 15.6918 34.5359 -168.033 -7.74572 -183.103
lowerback 16.6735 2.23258 3.87639
upperback -1.63601 3.74593 0.145433
thorax -10.9457 1.52396 -2.99274
lowerneck -5.38929 -5.86773 -9.1691
upperneck -3.00299 -7.48614 3.26766
head 0.463907 -3.73329 2.42958
rclavicle 2.98177e-015 -6.36111e-015
rhumerus -46.3522 19.0236 -89.7619
rradius 29.3184
rwrist 32.2692
rhand 0.14639 -45.8599
rfingers 7.12502
rthumb 25.7306 -74.1404
lclavicle 2.98177e-015 -6.36111e-015
lhumerus -54.3892 -6.05368 81.9398
lradius 32.0453
lwrist -31.9986
lhand 20.5573 -34.3592
lfingers 7.12502
lthumb 45.0539 -10.8809
rfemur -30.8104 -1.73132 22.4203
rtibia 37.0348
rfoot -8.08004 -12.5045
rtoes -3.15575
lfemur -34.9915 -4.00758 -22.6529
ltibia 33.5859
lfoot -0.837714 1.1115
ltoes -38.9908
151
root 8.53403 15.4175 34.5006 -168.508 -7.70625 -183.037
lowerback 17.3501 2.22738 3.85928
upperback -1.50498 3.75635 0.185997
thorax -11.1924 1.51858 -2.97428
lowerneck -5.2349 -5.83853 -8.87191
upperneck -4.03406 -7.53189 3.06535
head 0.0874177 -3.76093 2.33084
rclavicle -1.19271e-014 2.14687e-014
rhumerus -45.4162 18.8575 -89.1549
rradius 28.4662
rwrist 32.1434
rhand 1.36366 -47.1046
rfingers 7.12502
rthumb 26.8959 -75.2111
lclavicle -1.19271e-014 2.14687e-014
lhumerus -54.6787 -4.45796 80.4773
lradius 31.6156
lwrist -32.6564
lhand 18.6139 -35.4546
lfingers 7.12502
lthumb 43.2418 -11.2946
rfemur -31.9732 -2.53562 22.8446
rtibia 40.5844
rfoot -12.2938 -13.012
rtoes -2.9597
lfemur -36.3119 -3.14737 -22.8875
ltibia 37.6208
lfoot -7.10731 1.18864
ltoes -32.1212
152
root 8.53944 15.1525 34.4594 -168.957 -7.15358 -182.345
lowerback 17.8106 2.27469 4.01061
upperback -1.34998 3.89009 0.555705
thorax -11.291 1.5744 -2.70747
lowerneck -5.3504 -5.65682 -9.00864
upperneck -4.86965 -7.33931 2.91428
head -0.174356 -3.66992 2.32432
rclavicle -4.01545e-014 -5.64548e-014
rhumerus -43.9914 18.8419 -88.1045
rradius 27.2752
rwrist 32.7613
rhand 2.68351 -48.7478
rfingers 7.12502
rthumb 28.1581 -76.6532
lclavicle -4.01545e-014 -5.64548e-014
lhumerus -55.1567 -2.39275 79.2137
lradius 31.1235
lwrist -33.4575
lhand 15.6658 -35.9401
lfingers 7.12502
lthumb 40.478 -10.8601
rfemur -32.6527 -2.80527 24.0199
rtibia 43.2295
rfoot -16.5644 -13.8139
rtoes -2.96802
lfemur -37.7179 -2.04134 -22.395
ltibia 41.6812
lfoot -13.2105 1.71423
ltoes -32.7693
153
root 8.54225 14.8878 34.4256 -168.765 -6.35931 -180.825
lowerback 17.8583 2.37135 4.87248
upperback -1.35234 4.2431 1.09269
thorax -11.2801 1.69546 -2.69532
lowerneck -5.7083 -5.39746 -9.19916
upperneck -5.76566 -7.03883 2.82333
head -0.417428 -3.52845 2.34471
rclavicle 2.42517e-014 6.67916e-014
rhumerus -42.1213 18.1348 -86.4854
rradius 25.9951
rwrist 34.6906
rhand 3.16071 -49.9649
rfingers 7.12502
rthumb 28.6141 -77.7944
lclavicle 2.42517e-014 6.67916e-014
lhumerus -55.5095 -0.385927 78.0354
lradius 30.6861
lwrist -33.7258
lhand 13.2134 -35.9108
lfingers 7.12502
lthumb 38.1674 -10.1573
rfemur -34.0442 -2.42571 26.1177
rtibia 45.7497
rfoot -21.0136 -14.5834
rtoes -2.95852
lfemur -39.6952 -0.750496 -20.9568
ltibia 45.243
lfoot -18.3011 3.40763
ltoes -36.5185
